# Blender v2.80 (sub 75) OBJ File: ''
# www.blender.org
o Cube_Cube.002
v -1.000000 1.000000 1.000000
v -1.000000 -1.000000 1.000000
v 1.000000 1.000000 1.000000
v 0.000000 -0.000000 -1.000000
v 1.000000 -1.000000 1.000000
vt 1.000000 0.000000
vt 0.000000 1.000000
vt 0.000000 0.000005
vt 1.000000 1.000000
vt 0.500000 0.500000
vn 0.0000 0.0000 1.0000
vn 0.0000 0.8944 -0.4472
vn -0.8944 0.0000 -0.4472
vn 0.0000 -0.8944 -0.4472
vn 0.8944 0.0000 -0.4472
s off
f 5/1/1 1/2/1 2/3/1
f 3/4/2 4/5/2 1/2/2
f 1/2/3 4/5/3 2/3/3
f 2/3/4 4/5/4 5/1/4
f 3/4/5 5/1/5 4/5/5
f 5/1/1 3/4/1 1/2/1
